<svg width="51" height="12" viewBox="0 0 51 12" fill="none" xmlns="http://www.w3.org/2000/svg">
<g clip-path="url(#clip0_1415_260)">
<path d="M4 11C4.27614 11 4.5 10.7761 4.5 10.5C4.5 10.2239 4.27614 10 4 10C3.72386 10 3.5 10.2239 3.5 10.5C3.5 10.7761 3.72386 11 4 11Z" stroke="white" stroke-linecap="round" stroke-linejoin="round"/>
<path d="M9.5 11C9.77614 11 10 10.7761 10 10.5C10 10.2239 9.77614 10 9.5 10C9.22386 10 9 10.2239 9 10.5C9 10.7761 9.22386 11 9.5 11Z" stroke="white" stroke-linecap="round" stroke-linejoin="round"/>
<path d="M1.0249 1.02499H2.0249L3.3549 7.23499C3.40369 7.46242 3.53024 7.66573 3.71276 7.80992C3.89528 7.95411 4.12236 8.03017 4.3549 8.02499H9.2449C9.47249 8.02463 9.69314 7.94664 9.87042 7.80391C10.0477 7.66118 10.171 7.46226 10.2199 7.23999L11.0449 3.52499H2.5599" stroke="white" stroke-linecap="round" stroke-linejoin="round"/>
</g>
<path d="M18.672 7.704C18.672 7.99733 18.6027 8.248 18.464 8.456C18.3253 8.65867 18.1173 8.81333 17.84 8.92C17.5627 9.02667 17.2187 9.08 16.808 9.08C16.504 9.08 16.2427 9.05867 16.024 9.016C15.8053 8.97867 15.5867 8.91467 15.368 8.824V7.84C15.6027 7.94667 15.856 8.03467 16.128 8.104C16.4 8.17333 16.64 8.208 16.848 8.208C17.0827 8.208 17.248 8.17333 17.344 8.104C17.4453 8.03467 17.496 7.944 17.496 7.832C17.496 7.75733 17.4747 7.69067 17.432 7.632C17.3947 7.57333 17.3093 7.50667 17.176 7.432C17.0427 7.35733 16.8347 7.26133 16.552 7.144C16.28 7.02667 16.056 6.912 15.88 6.8C15.704 6.68267 15.5733 6.544 15.488 6.384C15.4027 6.21867 15.36 6.01333 15.36 5.768C15.36 5.36267 15.5173 5.05867 15.832 4.856C16.1467 4.65333 16.5653 4.552 17.088 4.552C17.36 4.552 17.6187 4.57867 17.864 4.632C18.1093 4.68533 18.3627 4.77333 18.624 4.896L18.264 5.752C18.12 5.688 17.9813 5.632 17.848 5.584C17.7147 5.536 17.584 5.49867 17.456 5.472C17.3333 5.44533 17.2053 5.432 17.072 5.432C16.896 5.432 16.7627 5.456 16.672 5.504C16.5867 5.552 16.544 5.624 16.544 5.72C16.544 5.78933 16.5653 5.85333 16.608 5.912C16.656 5.96533 16.744 6.024 16.872 6.088C17.0053 6.152 17.2 6.23733 17.456 6.344C17.7067 6.44533 17.9227 6.552 18.104 6.664C18.2853 6.77067 18.424 6.90667 18.52 7.072C18.6213 7.232 18.672 7.44267 18.672 7.704ZM20.7926 4.16C20.7926 4.37333 20.7846 4.57867 20.7686 4.776C20.7579 4.97333 20.7472 5.112 20.7366 5.192H20.8006C20.8966 5.04267 21.0086 4.92267 21.1366 4.832C21.2646 4.736 21.4059 4.66667 21.5606 4.624C21.7206 4.576 21.8886 4.552 22.0646 4.552C22.3792 4.552 22.6539 4.608 22.8886 4.72C23.1232 4.832 23.3046 5.00533 23.4326 5.24C23.5659 5.47467 23.6326 5.77867 23.6326 6.152V9H22.4406V6.448C22.4406 6.13333 22.3819 5.89867 22.2646 5.744C22.1526 5.584 21.9766 5.504 21.7366 5.504C21.4966 5.504 21.3072 5.56 21.1686 5.672C21.0352 5.784 20.9392 5.94667 20.8806 6.16C20.8219 6.37333 20.7926 6.63467 20.7926 6.944V9H19.6006V2.92H20.7926V4.16ZM28.8264 6.808C28.8264 7.17067 28.7757 7.49333 28.6744 7.776C28.5784 8.05867 28.437 8.29867 28.2504 8.496C28.069 8.688 27.8477 8.83467 27.5864 8.936C27.325 9.032 27.029 9.08 26.6984 9.08C26.3944 9.08 26.1117 9.032 25.8504 8.936C25.5944 8.83467 25.373 8.688 25.1864 8.496C24.9997 8.29867 24.853 8.05867 24.7464 7.776C24.645 7.49333 24.5944 7.17067 24.5944 6.808C24.5944 6.32267 24.6797 5.91467 24.8504 5.584C25.021 5.248 25.2664 4.992 25.5864 4.816C25.9064 4.64 26.285 4.552 26.7224 4.552C27.133 4.552 27.4957 4.64 27.8104 4.816C28.125 4.992 28.373 5.248 28.5544 5.584C28.7357 5.91467 28.8264 6.32267 28.8264 6.808ZM25.8104 6.808C25.8104 7.096 25.8397 7.33867 25.8984 7.536C25.9624 7.728 26.061 7.87467 26.1944 7.976C26.3277 8.072 26.501 8.12 26.7144 8.12C26.9277 8.12 27.0984 8.072 27.2264 7.976C27.3597 7.87467 27.4557 7.728 27.5144 7.536C27.5784 7.33867 27.6104 7.096 27.6104 6.808C27.6104 6.52 27.5784 6.28 27.5144 6.088C27.4557 5.896 27.3597 5.752 27.2264 5.656C27.093 5.56 26.9197 5.512 26.7064 5.512C26.3917 5.512 26.1624 5.62133 26.0184 5.84C25.8797 6.05333 25.8104 6.376 25.8104 6.808ZM32.2435 4.552C32.7342 4.552 33.1315 4.744 33.4355 5.128C33.7395 5.50667 33.8915 6.06667 33.8915 6.808C33.8915 7.304 33.8195 7.72267 33.6755 8.064C33.5315 8.4 33.3342 8.65333 33.0835 8.824C32.8328 8.99467 32.5422 9.08 32.2115 9.08C32.0035 9.08 31.8222 9.05333 31.6675 9C31.5182 8.94667 31.3902 8.87733 31.2835 8.792C31.1768 8.70667 31.0835 8.616 31.0035 8.52H30.9395C30.9608 8.62133 30.9768 8.728 30.9875 8.84C30.9982 8.94667 31.0035 9.05333 31.0035 9.16V10.92H29.8115V4.632H30.7795L30.9475 5.2H31.0035C31.0835 5.08267 31.1795 4.976 31.2915 4.88C31.4035 4.77867 31.5368 4.69867 31.6915 4.64C31.8515 4.58133 32.0355 4.552 32.2435 4.552ZM31.8595 5.504C31.6515 5.504 31.4862 5.54667 31.3635 5.632C31.2408 5.71733 31.1502 5.848 31.0915 6.024C31.0382 6.19467 31.0088 6.41067 31.0035 6.672V6.8C31.0035 7.08267 31.0302 7.32267 31.0835 7.52C31.1368 7.712 31.2275 7.85867 31.3555 7.96C31.4835 8.06133 31.6568 8.112 31.8755 8.112C32.0568 8.112 32.2062 8.06133 32.3235 7.96C32.4408 7.85867 32.5288 7.70933 32.5875 7.512C32.6462 7.31467 32.6755 7.07467 32.6755 6.792C32.6755 6.36533 32.6088 6.04533 32.4755 5.832C32.3475 5.61333 32.1422 5.504 31.8595 5.504ZM36.65 9.08C36.218 9.08 35.85 9.00267 35.546 8.848C35.242 8.688 35.01 8.44267 34.85 8.112C34.69 7.78133 34.61 7.35733 34.61 6.84C34.61 6.30667 34.7007 5.872 34.882 5.536C35.0633 5.2 35.314 4.952 35.634 4.792C35.9593 4.632 36.3327 4.552 36.754 4.552C37.0527 4.552 37.3113 4.58133 37.53 4.64C37.754 4.69867 37.9487 4.768 38.114 4.848L37.762 5.768C37.5753 5.69333 37.3993 5.632 37.234 5.584C37.074 5.536 36.914 5.512 36.754 5.512C36.546 5.512 36.3727 5.56267 36.234 5.664C36.0953 5.76 35.9913 5.90667 35.922 6.104C35.858 6.296 35.826 6.53867 35.826 6.832C35.826 7.12 35.8607 7.36 35.93 7.552C36.0047 7.73867 36.1113 7.88 36.25 7.976C36.3887 8.06667 36.5567 8.112 36.754 8.112C37.0047 8.112 37.226 8.08 37.418 8.016C37.61 7.94667 37.7967 7.85333 37.978 7.736V8.752C37.7967 8.86933 37.6047 8.952 37.402 9C37.2047 9.05333 36.954 9.08 36.65 9.08ZM40.7754 4.544C41.362 4.544 41.81 4.672 42.1194 4.928C42.434 5.17867 42.5914 5.56533 42.5914 6.088V9H41.7594L41.5274 8.408H41.4954C41.3727 8.56267 41.2447 8.69067 41.1114 8.792C40.9834 8.89333 40.834 8.96533 40.6634 9.008C40.498 9.056 40.2927 9.08 40.0474 9.08C39.7914 9.08 39.5594 9.032 39.3514 8.936C39.1487 8.83467 38.9887 8.68267 38.8714 8.48C38.754 8.272 38.6954 8.01067 38.6954 7.696C38.6954 7.232 38.858 6.89067 39.1834 6.672C39.5087 6.448 39.9967 6.32533 40.6474 6.304L41.4074 6.28V6.088C41.4074 5.85867 41.346 5.69067 41.2234 5.584C41.106 5.47733 40.9407 5.424 40.7274 5.424C40.514 5.424 40.306 5.456 40.1034 5.52C39.9007 5.57867 39.698 5.65333 39.4954 5.744L39.1034 4.936C39.338 4.81333 39.5967 4.71733 39.8794 4.648C40.1674 4.57867 40.466 4.544 40.7754 4.544ZM40.9434 6.992C40.5594 7.00267 40.2927 7.072 40.1434 7.2C39.994 7.328 39.9194 7.496 39.9194 7.704C39.9194 7.88533 39.9727 8.016 40.0794 8.096C40.186 8.17067 40.3247 8.208 40.4954 8.208C40.7514 8.208 40.9674 8.13333 41.1434 7.984C41.3194 7.82933 41.4074 7.61333 41.4074 7.336V6.976L40.9434 6.992ZM46.2515 4.552C46.3102 4.552 46.3795 4.55467 46.4595 4.56C46.5395 4.56533 46.6035 4.57333 46.6515 4.584L46.5635 5.704C46.5262 5.69333 46.4702 5.68533 46.3955 5.68C46.3262 5.66933 46.2648 5.664 46.2115 5.664C46.0568 5.664 45.9075 5.68533 45.7635 5.728C45.6195 5.76533 45.4888 5.82667 45.3715 5.912C45.2595 5.99733 45.1688 6.112 45.0995 6.256C45.0355 6.39467 45.0035 6.568 45.0035 6.776V9H43.8115V4.632H44.7155L44.8915 5.368H44.9475C45.0328 5.21867 45.1395 5.08267 45.2675 4.96C45.3955 4.83733 45.5422 4.73867 45.7075 4.664C45.8782 4.58933 46.0595 4.552 46.2515 4.552ZM49.2843 8.128C49.4176 8.128 49.5456 8.11467 49.6683 8.088C49.791 8.06133 49.9136 8.02933 50.0363 7.992V8.88C49.9083 8.93333 49.7483 8.97867 49.5563 9.016C49.3696 9.05867 49.1643 9.08 48.9403 9.08C48.679 9.08 48.4443 9.03733 48.2363 8.952C48.0336 8.86667 47.871 8.72 47.7483 8.512C47.631 8.29867 47.5723 8.00533 47.5723 7.632V5.528H47.0043V5.024L47.6603 4.624L48.0043 3.704H48.7643V4.632H49.9883V5.528H48.7643V7.632C48.7643 7.79733 48.8123 7.92267 48.9083 8.008C49.0043 8.088 49.1296 8.128 49.2843 8.128Z" fill="white"/>
<defs>
<clipPath id="clip0_1415_260">
<rect width="12" height="12" fill="white"/>
</clipPath>
</defs>
</svg>
